G04 EAGLE Gerber RS-274X export*
G75*
%MOMM*%
%FSLAX34Y34*%
%LPD*%
%INSoldermask Top*%
%IPPOS*%
%AMOC8*
5,1,8,0,0,1.08239X$1,22.5*%
G01*
%ADD10C,1.703200*%
%ADD11R,1.703200X1.703200*%
%ADD12P,1.869504X8X22.500000*%
%ADD13C,5.283200*%
%ADD14C,1.524000*%
%ADD15C,1.981200*%
%ADD16C,4.394200*%


D10*
X521970Y566420D03*
X496570Y566420D03*
X471170Y566420D03*
X445770Y566420D03*
X420370Y566420D03*
X394970Y566420D03*
X369570Y566420D03*
X344170Y566420D03*
X318770Y566420D03*
X293370Y566420D03*
X267970Y566420D03*
X242570Y566420D03*
X217170Y566420D03*
X191770Y566420D03*
X521970Y490220D03*
X496570Y490220D03*
X471170Y490220D03*
X445770Y490220D03*
X420370Y490220D03*
X394970Y490220D03*
X369570Y490220D03*
X344170Y490220D03*
X318770Y490220D03*
X293370Y490220D03*
X267970Y490220D03*
X242570Y490220D03*
X217170Y490220D03*
D11*
X191770Y490220D03*
D12*
X189992Y711200D03*
X217678Y711200D03*
X245110Y711200D03*
X272796Y711200D03*
X300482Y711200D03*
X327914Y711200D03*
X355600Y711200D03*
X383286Y711200D03*
X410718Y711200D03*
X438404Y711200D03*
X466090Y711200D03*
X493522Y711200D03*
X521208Y711200D03*
X203708Y736600D03*
X231394Y736600D03*
X259080Y736600D03*
X286512Y736600D03*
X314198Y736600D03*
X341884Y736600D03*
X369316Y736600D03*
X397002Y736600D03*
X424688Y736600D03*
X452120Y736600D03*
X479806Y736600D03*
X507492Y736600D03*
D13*
X120396Y723900D03*
X590804Y723900D03*
D14*
X226060Y677164D02*
X226060Y663956D01*
X251460Y663956D02*
X251460Y677164D01*
X276860Y677164D02*
X276860Y663956D01*
X302260Y663956D02*
X302260Y677164D01*
X327660Y677164D02*
X327660Y663956D01*
X353060Y663956D02*
X353060Y677164D01*
X378460Y677164D02*
X378460Y663956D01*
X403860Y663956D02*
X403860Y677164D01*
X429260Y677164D02*
X429260Y663956D01*
X454660Y663956D02*
X454660Y677164D01*
X480060Y677164D02*
X480060Y663956D01*
D15*
X246380Y627380D03*
X271780Y627380D03*
X297180Y627380D03*
X322580Y627380D03*
X347980Y627380D03*
X373380Y627380D03*
X398780Y627380D03*
X424180Y627380D03*
X449580Y627380D03*
X474980Y627380D03*
X500380Y627380D03*
X525780Y627380D03*
X246380Y424180D03*
X271780Y424180D03*
X297180Y424180D03*
X322580Y424180D03*
X347980Y424180D03*
X373380Y424180D03*
X398780Y424180D03*
X424180Y424180D03*
X449580Y424180D03*
X474980Y424180D03*
X500380Y424180D03*
X525780Y424180D03*
X220980Y424180D03*
X195580Y424180D03*
X170180Y424180D03*
X144780Y424180D03*
D16*
X544830Y669290D03*
X165100Y669290D03*
M02*
